<svg xmlns="http://www.w3.org/2000/svg" width="1500" height="900" viewBox="0 0 1500 900">
<style>text{font-family:Arial,sans-serif;fill:#111}.title{font-size:30px;font-weight:bold}.h{font-size:24px;font-weight:bold}.t{font-size:19px}.box{fill:white;stroke:#111;stroke-width:3}</style>
<defs><marker id="a" markerWidth="10" markerHeight="7" refX="9" refY="3.5" orient="auto"><polygon points="0 0,10 3.5,0 7" fill="#111"/></marker></defs>
<text x="750" y="55" text-anchor="middle" class="title">Small Enterprise Infrastructure Lab</text>
<rect x="520" y="100" width="460" height="130" rx="18" class="box"/><text x="540" y="135" class="h">VMware Network</text><text x="540" y="175" class="t">192.168.207.0/24</text><text x="540" y="205" class="t">Gateway: 192.168.207.2</text>
<rect x="70" y="320" width="410" height="300" rx="18" class="box"/><text x="90" y="355" class="h">DC01 — Windows Server 2019</text><text x="90" y="395" class="t">192.168.207.10</text><text x="90" y="425" class="t">AD DS / DNS / Domain Controller</text><text x="90" y="455" class="t">File Server</text><text x="90" y="485" class="t">Print Server</text><text x="90" y="515" class="t">Group Policy</text>
<rect x="545" y="340" width="410" height="260" rx="18" class="box"/><text x="565" y="375" class="h">Windows 10 Client</text><text x="565" y="415" class="t">Domain joined: corp.local</text><text x="565" y="445" class="t">Department logins</text><text x="565" y="475" class="t">Mapped drives</text><text x="565" y="505" class="t">Security restrictions</text><text x="565" y="535" class="t">Shared printer</text>
<rect x="1020" y="320" width="410" height="330" rx="18" class="box"/><text x="1040" y="355" class="h">LINUX01 — Linux Server</text><text x="1040" y="395" class="t">192.168.207.20</text><text x="1040" y="425" class="t">DNS: 192.168.207.10</text><text x="1040" y="455" class="t">SSH / Apache / UFW</text><text x="1040" y="485" class="t">Samba + Winbind</text><text x="1040" y="515" class="t">AD domain member</text>
<rect x="120" y="710" width="310" height="140" rx="18" class="box"/><text x="140" y="745" class="h">Departments</text><text x="140" y="785" class="t">HR / Finance / IT / Management</text><text x="140" y="815" class="t">OUs + Users + GG_* groups</text>
<rect x="560" y="710" width="380" height="140" rx="18" class="box"/><text x="580" y="745" class="h">CompanyData</text><text x="580" y="785" class="t">Share + NTFS permissions</text><text x="580" y="815" class="t">Department isolation</text>
<rect x="1040" y="710" width="360" height="140" rx="18" class="box"/><text x="1060" y="745" class="h">CORP Internal Portal</text><text x="1060" y="785" class="t">Apache intranet</text><text x="1060" y="815" class="t">Windows/Linux integration</text>
<line x1="750" y1="230" x2="275" y2="320" stroke="#111" stroke-width="3" marker-end="url(#a)"/><line x1="750" y1="230" x2="750" y2="340" stroke="#111" stroke-width="3" marker-end="url(#a)"/><line x1="750" y1="230" x2="1225" y2="320" stroke="#111" stroke-width="3" marker-end="url(#a)"/><line x1="275" y1="620" x2="275" y2="710" stroke="#111" stroke-width="3" marker-end="url(#a)"/><line x1="480" y1="500" x2="560" y2="750" stroke="#111" stroke-width="3" marker-end="url(#a)"/><line x1="1225" y1="650" x2="1225" y2="710" stroke="#111" stroke-width="3" marker-end="url(#a)"/>
</svg>